<svg width="282" height="274" viewBox="0 0 282 274" fill="none" xmlns="http://www.w3.org/2000/svg">
<path d="M249.127 136.996L241.971 151.579L244.757 167.583L233.769 179.548L231.907 195.685L217.988 204.061L211.667 219.027L195.957 223.165L185.687 235.751L169.449 235.287L156.033 244.445L140.587 239.409L125.14 244.445L111.723 235.287L95.4852 235.751L85.214 223.165L69.5058 219.027L63.1844 204.061L49.2656 195.684L47.4031 179.548L36.4162 167.583L39.2026 151.579L32.0459 136.996L39.2026 122.413L36.4162 106.409L47.4036 94.444L49.2662 78.3067L63.185 69.9293L69.5068 54.9653L85.2151 50.8267L95.4852 38.2413L111.724 38.7053L125.14 29.5467L140.587 34.5827L156.033 29.5467L169.451 38.7053L185.688 38.2413L195.959 50.8267L211.668 54.9666L217.988 69.9307L231.907 78.3067L233.769 94.444L244.757 106.409L241.971 122.413L249.127 136.996" fill="#253763"/>
<path d="M249.127 136.996L241.971 151.579L244.757 167.583L233.769 179.548L231.907 195.685L217.988 204.061L211.667 219.027L195.957 223.165L185.687 235.751L169.449 235.287L156.033 244.445L140.587 239.409L125.14 244.445L111.723 235.287L95.4852 235.751L85.214 223.165L69.5058 219.027L63.1844 204.061L49.2656 195.684L47.4031 179.548L36.4162 167.583L39.2026 151.579L32.0459 136.996L39.2026 122.413L36.4162 106.409L47.4036 94.444L49.2662 78.3067L63.185 69.9293L69.5068 54.9653L85.2151 50.8267L95.4852 38.2413L111.724 38.7053L125.14 29.5467L140.587 34.5827L156.033 29.5467L169.451 38.7053L185.688 38.2413L195.959 50.8267L211.668 54.9666L217.988 69.9307L231.907 78.3067L233.769 94.444L244.757 106.409L241.971 122.413L249.127 136.996" fill="#253763"/>
<path d="M251.205 136.996L243.911 151.857L246.751 168.169L235.553 180.363L233.654 196.808L219.47 205.345L213.027 220.596L197.018 224.813L186.551 237.641L170.002 237.168L156.33 246.501L140.587 241.369L124.845 246.501L111.171 237.168L94.6221 237.641L84.1551 224.813L68.1463 220.596L61.704 205.345L47.5192 196.808L45.6207 180.363L34.4233 168.168L37.2635 151.857L29.9697 136.996L37.2635 122.135L34.4233 105.824L45.6207 93.6295L47.5197 77.1828L61.7045 68.6455L68.1473 53.3947L84.1556 49.1788L94.6235 36.3508L111.173 36.8241L124.845 27.4908L140.587 32.6227L156.33 27.4908L170.003 36.8241L186.551 36.3508L197.019 49.1788L213.029 53.3961L219.47 68.6468L233.655 77.1841L235.554 93.6295L246.751 105.824L243.911 122.135L251.205 136.996" fill="#374B7B"/>
<path d="M262.796 136.996L255.296 153.495L257.876 171.435L246.018 185.142L243.407 203.076L228.162 212.878L220.618 229.358L203.236 234.491L191.367 248.188L173.243 248.206L157.979 257.978L140.587 252.87L123.195 257.978L107.93 248.206L89.8056 248.188L77.9359 234.491L60.5546 229.358L53.0114 212.876L37.7655 203.076L35.1562 185.142L23.2974 171.435L25.878 153.495L18.377 136.996L25.878 120.498L23.2974 102.558L35.1567 88.8509L37.766 70.9162L53.0124 61.1149L60.5551 44.6349L77.9373 39.5016L89.8067 25.8042L107.931 25.7869L123.195 16.0149L140.587 21.1216L157.979 16.0149L173.244 25.7869L191.368 25.8042L203.236 39.5016L220.619 44.6349L228.162 61.1162L243.408 70.9162L246.018 88.8509L257.876 102.558L255.296 120.498L262.796 136.996" fill="#FCD16B"/>
<path d="M251.205 136.996L243.911 151.857L246.751 168.169L235.553 180.363L233.654 196.808L219.47 205.345L213.027 220.596L197.018 224.813L186.551 237.641L170.002 237.168L156.33 246.501L140.587 241.369L124.845 246.501L111.171 237.168L94.6221 237.641L84.1551 224.813L68.1463 220.596L61.704 205.345L47.5192 196.808L45.6207 180.363L34.4233 168.168L37.2635 151.857L29.9697 136.996L37.2635 122.135L34.4233 105.824L45.6207 93.6295L47.5197 77.1828L61.7045 68.6455L68.1473 53.3947L84.1556 49.1788L94.6235 36.3508L111.173 36.8241L124.845 27.4908L140.587 32.6227L156.33 27.4908L170.003 36.8241L186.551 36.3508L197.019 49.1788L213.029 53.3961L219.47 68.6468L233.655 77.1841L235.554 93.6295L246.751 105.824L243.911 122.135L251.205 136.996" fill="#374B7B"/>
<path d="M249.127 136.996L241.971 151.579L244.757 167.583L233.769 179.548L231.907 195.685L217.988 204.061L211.667 219.027L195.957 223.165L185.687 235.751L169.449 235.287L156.033 244.445L140.587 239.409L125.14 244.445L111.723 235.287L95.4852 235.751L85.214 223.165L69.5058 219.027L63.1844 204.061L49.2656 195.684L47.4031 179.548L36.4162 167.583L39.2026 151.579L32.0459 136.996L39.2026 122.413L36.4162 106.409L47.4036 94.444L49.2662 78.3067L63.185 69.9293L69.5068 54.9653L85.2151 50.8267L95.4852 38.2413L111.724 38.7053L125.14 29.5467L140.587 34.5827L156.033 29.5467L169.451 38.7053L185.688 38.2413L195.959 50.8267L211.668 54.9666L217.988 69.9307L231.907 78.3067L233.769 94.444L244.757 106.409L241.971 122.413L249.127 136.996" fill="#253763"/>
<path d="M159.227 136.738L224.632 127.647L158.766 132.355L220.852 109.864L157.404 128.164L213.458 93.2578L155.2 124.348L202.772 78.5497L152.252 121.074L189.262 66.3858L148.687 118.483L173.518 57.2964L144.662 116.691L156.228 51.6791L140.352 115.775L138.148 49.7777L135.946 115.775L120.068 51.6777L131.635 116.691L102.779 57.2964L127.61 118.483L87.0349 66.3858L124.044 121.074L73.5254 78.5497L121.096 124.348L62.8396 93.2578L118.894 128.164L55.4453 109.864L117.532 132.355L51.665 127.647L117.071 136.738L51.665 145.827L117.532 141.119L55.4453 163.61L118.894 145.31L62.839 180.218L121.096 149.126L73.5254 194.924L124.044 152.4L87.0349 207.088L127.61 154.991L102.779 216.179L131.635 156.783L120.068 221.796L135.946 157.699L138.148 223.698L140.352 157.699L156.228 221.796L144.662 156.783L173.518 216.179L148.687 154.991L189.262 207.088L152.252 152.4L202.772 194.924L155.202 149.126L213.458 180.218L157.403 145.31L220.852 163.61L158.766 141.119L224.632 145.827L159.227 136.738" fill="#374B7B"/>
<path d="M133.703 4.23351C133.703 1.90018 135.593 0.000179092 137.927 0.000179092C140.26 -0.0118209 142.151 1.87889 142.161 4.21222C142.161 6.54556 140.271 8.43619 137.937 8.44686C135.604 8.44686 133.713 6.55751 133.703 4.23351ZM171.209 12.7335C168.96 12.1322 167.619 9.83088 168.211 7.57088C168.813 5.31088 171.125 3.96952 173.385 4.57218C175.633 5.17352 176.975 7.48555 176.373 9.73488C175.877 11.6255 174.167 12.8816 172.297 12.8816C171.939 12.8816 171.579 12.8282 171.209 12.7335V12.7335ZM99.5013 9.86151C98.8986 7.61217 100.229 5.28953 102.48 4.6882C104.739 4.08553 107.052 5.41621 107.653 7.66554C108.265 9.92554 106.924 12.2375 104.675 12.8495C104.307 12.9455 103.936 12.9868 103.577 12.9868C101.719 12.9868 100.008 11.7522 99.5013 9.86151ZM202.233 25.5308C200.205 24.3708 199.519 21.7828 200.68 19.7668C201.843 17.7388 204.429 17.0415 206.447 18.2135C208.473 19.3762 209.16 21.9522 207.999 23.9789C207.217 25.3309 205.791 26.0909 204.335 26.0909C203.616 26.0909 202.899 25.9122 202.233 25.5308V25.5308ZM67.9397 24.2015C66.7678 22.1842 67.4537 19.5975 69.4709 18.4362C71.487 17.2642 74.0746 17.9495 75.2365 19.9668C76.4084 21.9842 75.722 24.5709 73.7053 25.7322C73.0397 26.1229 72.3116 26.3135 71.5933 26.3135C70.136 26.3135 68.7209 25.5522 67.9397 24.2015V24.2015ZM228.875 45.9322C227.228 44.2855 227.216 41.6028 228.864 39.9562C230.511 38.2988 233.193 38.2989 234.84 39.9456C236.497 41.5922 236.497 44.2642 234.851 45.9215C234.028 46.7455 232.94 47.1575 231.863 47.1575C230.785 47.1575 229.697 46.7455 228.875 45.9322V45.9322ZM41.1616 46.2282C39.5032 44.5802 39.5032 41.8989 41.1506 40.2522C42.7974 38.5935 45.4693 38.5935 47.1272 40.2415C48.7741 41.8882 48.7741 44.5589 47.1272 46.2176C46.3037 47.0416 45.2261 47.4535 44.1386 47.4535C43.0621 47.4535 41.9845 47.0415 41.1616 46.2282V46.2282ZM249.369 72.5002C248.197 70.4829 248.884 67.8962 250.901 66.7242C252.919 65.5522 255.505 66.2375 256.676 68.2549C257.849 70.2722 257.163 72.8589 255.145 74.0309C254.48 74.4109 253.752 74.6015 253.035 74.6015C251.577 74.6015 250.151 73.8402 249.369 72.5002V72.5002ZM20.9506 74.4002C18.9236 73.2389 18.237 70.6522 19.398 68.6349C20.5704 66.6069 23.1474 65.9215 25.1637 67.0829C27.1917 68.2549 27.8881 70.8322 26.7162 72.8589C25.935 74.2095 24.5198 74.9708 23.0517 74.9708C22.334 74.9708 21.6152 74.7909 20.9506 74.4002V74.4002ZM251.049 207.026C249.032 205.864 248.345 203.278 249.507 201.26C250.679 199.243 253.256 198.547 255.284 199.719C257.3 200.88 257.987 203.467 256.824 205.484C256.043 206.846 254.617 207.596 253.161 207.596C252.443 207.596 251.715 207.416 251.049 207.026ZM19.5465 205.611C18.3746 203.594 19.0605 201.007 21.0777 199.835C23.0938 198.674 25.6813 199.36 26.8532 201.376C28.0256 203.392 27.3386 205.98 25.3225 207.152C24.6569 207.532 23.9288 207.723 23.2001 207.723C21.7422 207.723 20.3277 206.963 19.5465 205.611V205.611ZM229.075 233.847C227.417 232.199 227.417 229.527 229.064 227.88C230.723 226.223 233.393 226.223 235.041 227.87C236.688 229.527 236.688 232.199 235.041 233.847C234.217 234.67 233.14 235.082 232.052 235.082C230.976 235.082 229.899 234.67 229.075 233.847ZM41.3512 233.942C39.7037 232.294 39.6933 229.623 41.3408 227.964C42.998 226.318 45.6698 226.318 47.3173 227.964C48.9756 229.612 48.9756 232.283 47.3277 233.942C46.4938 234.766 45.4168 235.176 44.3288 235.176C43.2522 235.176 42.175 234.766 41.3512 233.942ZM200.924 254.099C199.761 252.071 200.448 249.496 202.465 248.323C204.481 247.151 207.069 247.848 208.241 249.864C209.413 251.882 208.716 254.47 206.7 255.64C206.035 256.022 205.305 256.2 204.588 256.2C203.131 256.2 201.716 255.451 200.924 254.099V254.099ZM69.7241 255.704C67.697 254.542 67.0105 251.955 68.172 249.939C69.3438 247.912 71.9209 247.226 73.948 248.386C75.9652 249.559 76.6616 252.146 75.4897 254.163C74.7084 255.514 73.2933 256.275 71.8256 256.275C71.1074 256.275 70.3897 256.095 69.7241 255.704V255.704ZM168.496 266.359C167.895 264.098 169.235 261.786 171.484 261.184C173.744 260.571 176.057 261.914 176.659 264.172C177.26 266.422 175.919 268.734 173.671 269.347C173.3 269.442 172.941 269.484 172.572 269.484C170.713 269.484 169.003 268.239 168.496 266.359ZM102.775 269.378C100.515 268.776 99.1746 266.464 99.776 264.215C100.379 261.955 102.691 260.614 104.951 261.216C107.2 261.818 108.54 264.13 107.939 266.391C107.443 268.28 105.731 269.527 103.863 269.527C103.504 269.527 103.133 269.474 102.775 269.378V269.378ZM133.999 269.768C133.999 267.435 135.889 265.544 138.223 265.544C140.545 265.544 142.447 267.435 142.447 269.768C142.447 272.103 140.556 273.992 138.223 273.992C135.889 273.992 133.999 272.103 133.999 269.768Z" fill="#D18A1B"/>
<path d="M268.678 145.536H12.4959C5.5948 145.536 0 139.941 0 133.039V88.9522C0 82.0508 5.5948 76.4562 12.4959 76.4562H268.678C275.579 76.4562 281.174 82.0508 281.174 88.9522V133.039C281.174 139.941 275.579 145.536 268.678 145.536Z" fill="#D18A1B"/>
<path d="M13.9544 80.727C8.78516 80.727 4.57943 84.9336 4.57943 90.103V131.89C4.57943 137.059 8.78516 141.264 13.9544 141.264H267.219C272.389 141.264 276.594 137.059 276.594 131.89V90.103C276.594 84.9336 272.389 80.727 267.219 80.727H13.9544ZM267.219 142.598H13.9544C8.0497 142.598 3.24609 137.794 3.24609 131.89V90.103C3.24609 84.1976 8.0497 79.3937 13.9544 79.3937H267.219C273.123 79.3937 277.927 84.1976 277.927 90.103V131.89C277.927 137.794 273.123 142.598 267.219 142.598Z" fill="#FCD16B"/>
<path d="M91.2499 101.698H84.0178V131H73.3567V101.698H65.6883L66.3117 92.2835H91.8733L91.2499 101.698ZM96.6213 96.336C99.032 93.2187 102.96 91.6601 108.405 91.6601C113.849 91.6601 117.736 93.1979 120.063 96.2736C122.432 99.3494 123.617 104.358 123.617 111.299C123.617 118.198 122.411 123.311 120.001 126.636C117.59 129.961 113.683 131.623 108.28 131.623C102.877 131.623 98.9904 129.982 96.6213 126.698C94.2522 123.415 93.0676 118.323 93.0676 111.424C93.0676 104.482 94.2522 99.4533 96.6213 96.336ZM112.893 111.299C112.893 107.475 112.582 104.898 111.958 103.568C111.376 102.196 110.15 101.511 108.28 101.511C106.451 101.511 105.267 102.196 104.726 103.568C104.186 104.898 103.916 107.454 103.916 111.237V112.733C103.916 116.764 104.207 119.425 104.789 120.713C105.412 121.96 106.638 122.583 108.467 122.583C110.337 122.583 111.543 121.981 112.083 120.775C112.623 119.57 112.893 117.076 112.893 113.294V111.299ZM141.204 118.344H138.336V131H127.862V92.2835H140.518C144.965 92.2835 148.269 93.3019 150.431 95.3385C152.592 97.3751 153.673 100.721 153.673 105.376C153.673 110.031 152.654 113.356 150.618 115.351C148.581 117.346 145.443 118.344 141.204 118.344ZM142.388 109.927C142.762 109.221 142.949 107.953 142.949 106.124C142.949 104.295 142.741 103.007 142.326 102.259C141.91 101.511 141.079 101.137 139.832 101.137H138.336V110.987H140.081C141.245 110.987 142.014 110.634 142.388 109.927ZM183.151 131H172.74V102.196H168.251V95.6502L174.61 92.2835H183.151V131ZM205.428 111.922V110.987C205.428 106.914 205.303 104.545 205.054 103.88C204.846 103.173 204.618 102.571 204.368 102.072C203.911 101.24 203.1 100.825 201.937 100.825C200.773 100.825 199.983 101.24 199.568 102.072C199.069 103.152 198.799 104.254 198.757 105.376C198.674 107.454 198.632 109.325 198.632 110.987V111.922C198.632 116.453 198.736 119.092 198.944 119.84C199.193 120.547 199.443 121.149 199.692 121.648C200.108 122.563 201.002 123.02 202.373 123.02C203.745 123.02 204.597 122.251 204.929 120.713C205.262 119.134 205.428 116.203 205.428 111.922ZM214.842 103.007C215.216 105.293 215.403 108.161 215.403 111.611C215.403 115.06 215.216 117.928 214.842 120.214C214.51 122.5 213.865 124.558 212.909 126.386C211.039 129.878 207.382 131.623 201.937 131.623C196.575 131.623 192.959 129.878 191.089 126.386C190.133 124.558 189.468 122.5 189.094 120.214C188.719 117.887 188.532 115.019 188.532 111.611C188.532 104.628 189.447 99.5572 191.276 96.3983C193.146 93.2395 196.7 91.6601 201.937 91.6601C207.423 91.6601 211.081 93.385 212.909 96.8348C213.865 98.6636 214.51 100.721 214.842 103.007Z" fill="white"/>
<path d="M245.084 119.038L238.068 121.532L238.274 114.09L233.732 108.188L240.874 106.083L245.084 99.9415L249.292 106.083L256.435 108.188L251.895 114.09L252.099 121.532L245.084 119.038Z" fill="white"/>
<path d="M36.0894 119.038L29.0748 121.532L29.279 114.09L24.7383 108.188L31.8805 106.083L36.0894 99.9415L40.2992 106.083L47.4409 108.188L42.9008 114.09L43.1049 121.532L36.0894 119.038" fill="white"/>
<path d="M161.243 139.545C161.243 134.382 157.14 130.069 151.977 130.001C146.997 129.935 142.881 133.767 142.495 138.635C140.481 147.896 136.068 150.864 119.85 167.565L114.913 167.565C113.191 167.565 111.782 168.967 111.782 170.696V214.522C111.782 216.25 113.184 217.652 114.912 217.652H170.217C177.254 217.648 181.99 210.07 178.354 203.657C182.426 201.077 184.099 195.746 181.485 191.136C185.556 188.555 187.23 183.224 184.615 178.614C187.242 176.949 188.997 174.037 189 170.696C188.996 165.508 184.796 161.308 179.608 161.304H156.821C159.417 153.517 161.243 147.885 161.243 139.545Z" fill="#FFDAB3"/>
<path d="M114.913 161.304H96.1305C94.4091 161.304 93 162.706 93 164.435V220.782C93 222.51 94.4029 223.912 96.1305 223.912H114.913C116.641 223.912 118.044 222.51 118.044 220.782V164.435C118.043 162.706 116.634 161.304 114.913 161.304Z" fill="#32BBFF"/>
<path d="M114.913 161.304H105.521V223.912H114.913C116.64 223.912 118.043 222.509 118.043 220.782V164.435C118.043 162.706 116.634 161.304 114.913 161.304Z" fill="#2C9FD9"/>
<path d="M179.608 161.304H174.39L118.043 217.651H170.216C177.253 217.647 181.99 210.07 178.354 203.657C182.425 201.076 184.099 195.746 181.484 191.135C185.556 188.554 187.229 183.224 184.615 178.613C187.242 176.948 188.997 174.036 188.999 170.695C188.995 165.508 184.795 161.307 179.608 161.304Z" fill="#FFC3A6"/>
</svg>
