<svg width="175" height="45" viewBox="0 0 175 45" fill="none" xmlns="http://www.w3.org/2000/svg">
<path d="M56.1531 24.1703C54.8159 23.4514 53.7648 22.4543 52.9995 21.1791C52.2343 19.9037 51.8518 18.4626 51.8518 16.8546C51.8518 15.2471 52.2343 13.8054 52.9995 12.5302C53.7648 11.2547 54.8159 10.2577 56.1531 9.5388C57.4899 8.8201 58.9936 8.46066 60.6631 8.46066C62.0697 8.46066 63.3412 8.70821 64.4775 9.20275C65.3498 9.58266 66.1149 10.0901 66.7731 10.7247C67.1006 11.0405 67.0875 11.5699 66.7534 11.8783L65.4993 13.0362C65.1929 13.319 64.7233 13.3138 64.4157 13.0323C63.4161 12.1181 62.2272 11.6606 60.8485 11.6606C59.8436 11.6606 58.9472 11.8809 58.1589 12.3214C57.3704 12.7621 56.756 13.3765 56.3155 14.1648C55.8749 14.9533 55.6547 15.8498 55.6547 16.8546C55.6547 17.8597 55.8749 18.7562 56.3155 19.5444C56.756 20.3327 57.3704 20.9473 58.1589 21.3879C58.9472 21.8282 59.8436 22.0485 60.8485 22.0485C62.2272 22.0485 63.4161 21.5859 64.4157 20.6602C64.7229 20.3756 65.195 20.369 65.5028 20.653L66.7579 21.8116C67.0907 22.119 67.1049 22.6452 66.7815 22.9621C66.1199 23.6102 65.348 24.1252 64.466 24.5067C63.3217 25.001 62.0463 25.2484 60.6399 25.2484C58.9856 25.2484 57.4899 24.8892 56.1531 24.1703Z" fill="white"/>
<path d="M79.3984 21.3878C80.1713 20.9472 80.7781 20.3328 81.2186 19.5443C81.6592 18.756 81.8796 17.8596 81.8796 16.8545C81.8796 15.8499 81.6592 14.9532 81.2186 14.1647C80.7781 13.3764 80.1713 12.762 79.3984 12.3213C78.6253 11.8809 77.7596 11.6607 76.8014 11.6607C75.8427 11.6607 74.9772 11.8809 74.2044 12.3213C73.4313 12.762 72.8247 13.3764 72.3841 14.1647C71.9436 14.9532 71.7233 15.8499 71.7233 16.8545C71.7233 17.8596 71.9436 18.756 72.3841 19.5443C72.8247 20.3328 73.4313 20.9472 74.2044 21.3878C74.9772 21.8283 75.8427 22.0486 76.8014 22.0486C77.7596 22.0486 78.6253 21.8283 79.3984 21.3878ZM72.2451 24.1587C70.8921 23.4322 69.8335 22.4314 69.0684 21.156C68.3031 19.8806 67.9205 18.4469 67.9205 16.8545C67.9205 15.2626 68.3031 13.8287 69.0684 12.5533C69.8335 11.278 70.8921 10.2773 72.2451 9.55039C73.5975 8.82409 75.1164 8.46075 76.8014 8.46075C78.4861 8.46075 80.0013 8.82409 81.3461 9.55039C82.6911 10.2773 83.7498 11.278 84.523 12.5533C85.2957 13.8287 85.6823 15.2626 85.6823 16.8545C85.6823 18.4469 85.2957 19.8806 84.523 21.156C83.7498 22.4314 82.6911 23.4322 81.3461 24.1587C80.0013 24.8854 78.4861 25.2485 76.8014 25.2485C75.1164 25.2485 73.5975 24.8854 72.2451 24.1587" fill="white"/>
<path d="M86.1081 24.9703H96.9049V26.2601C96.9049 26.7003 96.5482 27.0572 96.1081 27.0572H86.1081C85.6679 27.0572 85.3112 26.7003 85.3112 26.2601V25.7672C85.3112 25.327 85.6679 24.9703 86.1081 24.9703Z" fill="white"/>
<path d="M99.7424 8.73899H101.905C102.345 8.73899 102.702 9.09571 102.702 9.53586V24.1734C102.702 24.6135 102.345 24.9704 101.905 24.9704H99.7424C99.3023 24.9704 98.9454 24.6135 98.9454 24.1734V9.53586C98.9454 9.09571 99.3023 8.73899 99.7424 8.73899Z" fill="white"/>
<path d="M117.043 13.7011C117.994 14.6285 118.469 16.0045 118.469 17.8285V24.1734C118.469 24.6133 118.112 24.9704 117.672 24.9704H115.649C115.209 24.9704 114.852 24.6133 114.852 24.1734V18.385C114.852 17.3959 114.635 16.6575 114.203 16.1706C113.77 15.6837 113.144 15.4402 112.324 15.4402C111.412 15.4402 110.686 15.7223 110.145 16.2866C109.603 16.8509 109.333 17.6893 109.333 18.8023V24.1734C109.333 24.6133 108.976 24.9704 108.536 24.9704H106.513C106.073 24.9704 105.716 24.6133 105.716 24.1734V13.2921C105.716 12.8522 106.073 12.4953 106.513 12.4953H108.374C108.814 12.4953 109.171 12.8522 109.171 13.2921V13.9562C109.65 13.4307 110.245 13.0249 110.956 12.7387C111.667 12.453 112.448 12.3097 113.298 12.3097C114.844 12.3097 116.092 12.7734 117.043 13.7011Z" fill="white"/>
<path d="M122.318 24.7731C121.678 24.608 121.122 24.4154 120.65 24.1954C120.251 24.0096 120.081 23.5357 120.266 23.1373L120.801 21.9851C120.985 21.5886 121.457 21.4081 121.852 21.595C122.25 21.7827 122.691 21.9455 123.176 22.0833C123.965 22.3079 124.737 22.4198 125.495 22.4198C127.025 22.4198 127.791 22.041 127.791 21.2835C127.791 20.928 127.582 20.673 127.165 20.5182C126.747 20.3639 126.105 20.2325 125.24 20.1239C124.22 19.9697 123.377 19.7917 122.712 19.5908C122.047 19.39 121.472 19.0343 120.985 18.5239C120.498 18.014 120.255 17.2877 120.255 16.3444C120.255 15.5562 120.482 14.8568 120.939 14.2459C121.394 13.6353 122.059 13.1601 122.933 12.82C123.806 12.4802 124.838 12.3098 126.028 12.3098C126.909 12.3098 127.787 12.4067 128.66 12.5997C129.188 12.7166 129.661 12.8605 130.079 13.0311C130.501 13.203 130.69 13.6946 130.497 14.1069L129.967 15.2382C129.784 15.6277 129.326 15.801 128.931 15.6308C128.027 15.2412 127.059 15.046 126.028 15.046C125.255 15.046 124.675 15.1542 124.289 15.3706C123.903 15.5872 123.709 15.8655 123.709 16.2053C123.709 16.5918 123.918 16.8626 124.336 17.0169C124.753 17.1715 125.417 17.3183 126.33 17.4575C127.35 17.6279 128.185 17.8091 128.834 18.0025C129.483 18.1959 130.047 18.5473 130.527 19.0574C131.006 19.5676 131.246 20.2787 131.246 21.1907C131.246 21.9638 131.014 22.6515 130.55 23.2544C130.086 23.8573 129.41 24.325 128.521 24.6571C127.632 24.9895 126.577 25.1558 125.356 25.1558C124.32 25.1558 123.307 25.0283 122.318 24.7731Z" fill="white"/>
<path d="M141.923 21.2486C142.518 20.6225 142.816 19.7841 142.816 18.7329C142.816 17.6816 142.518 16.8428 141.923 16.2169C141.328 15.5908 140.567 15.2778 139.639 15.2778C138.712 15.2778 137.95 15.5908 137.355 16.2169C136.76 16.8428 136.462 17.6816 136.462 18.7329C136.462 19.7841 136.76 20.6225 137.355 21.2486C137.95 21.8747 138.712 22.1878 139.639 22.1878C140.567 22.1878 141.328 21.8747 141.923 21.2486V21.2486ZM143.43 13.1098C144.381 13.6429 145.127 14.393 145.668 15.3589C146.209 16.3253 146.479 17.4498 146.479 18.7329C146.479 20.0161 146.209 21.1406 145.668 22.1065C145.127 23.0727 144.381 23.8224 143.43 24.3557C142.48 24.8891 141.424 25.1557 140.265 25.1557C138.673 25.1557 137.421 24.6536 136.509 23.6485V28.6716C136.509 29.1118 136.152 29.4687 135.712 29.4687H133.689C133.248 29.4687 132.891 29.1118 132.891 28.6716V13.2922C132.891 12.8521 133.248 12.4954 133.689 12.4954H135.55C135.99 12.4954 136.347 12.8521 136.347 13.2922V13.933C137.243 12.8511 138.549 12.3098 140.265 12.3098C141.424 12.3098 142.48 12.5765 143.43 13.1098" fill="white"/>
<path d="M149.108 12.4953H151.131C151.572 12.4953 151.928 12.852 151.928 13.2922V24.1732C151.928 24.6134 151.572 24.9703 151.131 24.9703H149.108C148.668 24.9703 148.311 24.6134 148.311 24.1732V13.2922C148.311 12.852 148.668 12.4953 149.108 12.4953ZM148.497 10.1765C148.079 9.79032 147.87 9.31099 147.87 8.73888C147.87 8.16715 148.079 7.68783 148.497 7.30128C148.914 6.91494 149.455 6.72157 150.12 6.72157C150.784 6.72157 151.326 6.90714 151.743 7.27789C152.16 7.64923 152.369 8.11296 152.369 8.66929C152.369 9.2722 152.16 9.77063 151.743 10.165C151.326 10.5591 150.784 10.7562 150.12 10.7562C149.455 10.7562 148.914 10.5632 148.497 10.1765" fill="white"/>
<path d="M159.916 12.7735C160.419 12.562 160.974 12.4228 161.582 12.3559C162.049 12.3047 162.455 12.6799 162.455 13.1501V14.8056C162.455 15.2496 162.092 15.6036 161.648 15.6024H161.644C160.608 15.6024 159.796 15.8923 159.209 16.472C158.621 17.0517 158.328 17.9211 158.328 19.0805V24.1732C158.328 24.6134 157.971 24.9703 157.531 24.9703H155.508C155.067 24.9703 154.711 24.6134 154.711 24.1732V13.2922C154.711 12.852 155.067 12.4953 155.508 12.4953H157.369C157.809 12.4953 158.166 12.852 158.166 13.2922V14.1417C158.598 13.5387 159.182 13.083 159.916 12.7735Z" fill="white"/>
<path d="M170.362 22.292C170.842 22.0062 171.182 21.5848 171.383 21.0284V19.753H168.902C167.418 19.753 166.676 20.24 166.676 21.2138C166.676 21.6777 166.857 22.045 167.221 22.3152C167.584 22.5859 168.082 22.721 168.716 22.721C169.334 22.721 169.883 22.5783 170.362 22.292V22.292ZM173.447 13.6894C174.482 14.6093 175 15.9966 175 17.8517V24.1732C175 24.6134 174.643 24.9703 174.203 24.9703H172.412C171.971 24.9703 171.615 24.6134 171.615 24.1732V23.4167C170.934 24.5761 169.667 25.1556 167.812 25.1556C166.853 25.1556 166.022 24.9935 165.319 24.6687C164.616 24.3442 164.079 23.896 163.708 23.3239C163.337 22.7522 163.151 22.1029 163.151 21.3762C163.151 20.2168 163.588 19.3049 164.461 18.64C165.334 17.9755 166.683 17.6429 168.507 17.6429H171.383C171.383 16.8545 171.143 16.248 170.664 15.8227C170.185 15.3978 169.466 15.1851 168.507 15.1851C167.843 15.1851 167.189 15.2894 166.548 15.4979C166.199 15.6116 165.878 15.7473 165.586 15.9044C165.197 16.1137 164.713 15.9541 164.511 15.5617L163.951 14.472C163.755 14.0892 163.894 13.6151 164.273 13.4101C164.803 13.1224 165.4 12.8871 166.061 12.7039C167.012 12.4413 167.989 12.3097 168.994 12.3097C170.927 12.3097 172.411 12.7699 173.447 13.6894" fill="white"/>
<path d="M27.667 44.3105H16.6437C7.45149 44.3105 0.000183105 36.8592 0.000183105 27.667V16.6437C0.000183105 7.45182 7.45149 0.000196922 16.6437 0.000196922H27.667C36.8592 0.000196922 44.3108 7.45182 44.3108 16.6437V27.667C44.3108 36.8592 36.8592 44.3105 27.667 44.3105Z" fill="white"/>
<g opacity="0.800003">
<g opacity="0.800003">
<path opacity="0.800003" d="M0 8.72325V32.0665C3.95354 35.378 9.04751 37.3727 14.6081 37.3727C27.1806 37.3727 37.3727 27.1806 37.3727 14.6081C37.3727 9.04749 35.378 3.95353 32.0665 -1.81073e-05H8.72327C3.90553 -1.81073e-05 0 3.90551 0 8.72325Z" fill="#FBAE17"/>
</g>
</g>
<g opacity="0.800003">
<g opacity="0.800003">
<path opacity="0.800003" d="M44.3106 35.5875V12.2439C40.3571 8.93277 35.2631 6.93776 29.7025 6.93776C17.13 6.93776 6.93793 17.1298 6.93793 29.7023C6.93793 35.2629 8.93262 40.3569 12.2441 44.3105H35.5877C40.4051 44.3105 44.3106 40.4052 44.3106 35.5875Z" fill="#FBAE17"/>
</g>
</g>
<g opacity="0.699997">
<g opacity="0.699997">
<path opacity="0.699997" d="M8.72327 44.3105H32.0665C35.378 40.3569 37.3727 35.263 37.3727 29.7023C37.3727 17.1299 27.1806 6.93779 14.6081 6.93779C9.04751 6.93779 3.95354 8.9328 0 12.244V35.5875C0 40.4053 3.90553 44.3105 8.72327 44.3105Z" fill="#F7931E"/>
</g>
</g>
<g opacity="0.699997">
<g opacity="0.699997">
<path opacity="0.699997" d="M35.5876 7.34454e-05H12.2443C8.93282 3.95362 6.93781 9.04758 6.93781 14.6082C6.93781 27.1807 17.1299 37.3728 29.7027 37.3728C35.263 37.3728 40.3573 35.3781 44.3105 32.0666V8.72335C44.3105 3.90561 40.4053 7.34454e-05 35.5876 7.34454e-05Z" fill="#F7931E"/>
</g>
</g>
<path d="M151.705 44H56.0617C53.8187 44 52 42.1813 52 39.9383V37.2481C52 35.0047 53.8187 33.1863 56.0617 33.1863H151.705C153.948 33.1863 155.767 35.0047 155.767 37.2481V39.9383C155.767 42.1813 153.948 44 151.705 44Z" fill="#FBAE17"/>
<path d="M69.8187 36.818C70.2747 36.818 70.6687 36.904 71.0007 37.076C71.3367 37.244 71.5927 37.486 71.7687 37.802C71.9487 38.118 72.0387 38.49 72.0387 38.918C72.0387 39.346 71.9487 39.718 71.7687 40.034C71.5927 40.346 71.3367 40.586 71.0007 40.754C70.6687 40.918 70.2747 41 69.8187 41H68.5167V36.818H69.8187ZM69.8187 40.55C70.3587 40.55 70.7707 40.408 71.0547 40.124C71.3387 39.836 71.4807 39.434 71.4807 38.918C71.4807 38.398 71.3367 37.992 71.0487 37.7C70.7647 37.408 70.3547 37.262 69.8187 37.262H69.0627V40.55H69.8187ZM75.7589 39.23C75.7589 39.334 75.7529 39.444 75.7409 39.56H73.1129C73.1329 39.884 73.2429 40.138 73.4429 40.322C73.6469 40.502 73.8929 40.592 74.1809 40.592C74.4169 40.592 74.6129 40.538 74.7689 40.43C74.9289 40.318 75.0409 40.17 75.1049 39.986H75.6929C75.6049 40.302 75.4289 40.56 75.1649 40.76C74.9009 40.956 74.5729 41.054 74.1809 41.054C73.8689 41.054 73.5889 40.984 73.3409 40.844C73.0969 40.704 72.9049 40.506 72.7649 40.25C72.6249 39.99 72.5549 39.69 72.5549 39.35C72.5549 39.01 72.6229 38.712 72.7589 38.456C72.8949 38.2 73.0849 38.004 73.3289 37.868C73.5769 37.728 73.8609 37.658 74.1809 37.658C74.4929 37.658 74.7689 37.726 75.0089 37.862C75.2489 37.998 75.4329 38.186 75.5609 38.426C75.6929 38.662 75.7589 38.93 75.7589 39.23ZM75.1949 39.116C75.1949 38.908 75.1489 38.73 75.0569 38.582C74.9649 38.43 74.8389 38.316 74.6789 38.24C74.5229 38.16 74.3489 38.12 74.1569 38.12C73.8809 38.12 73.6449 38.208 73.4489 38.384C73.2569 38.56 73.1469 38.804 73.1189 39.116H75.1949ZM77.6436 41.054C77.3916 41.054 77.1656 41.012 76.9656 40.928C76.7656 40.84 76.6076 40.72 76.4916 40.568C76.3756 40.412 76.3116 40.234 76.2996 40.034H76.8636C76.8796 40.198 76.9556 40.332 77.0916 40.436C77.2316 40.54 77.4136 40.592 77.6376 40.592C77.8456 40.592 78.0096 40.546 78.1296 40.454C78.2496 40.362 78.3096 40.246 78.3096 40.106C78.3096 39.962 78.2456 39.856 78.1176 39.788C77.9896 39.716 77.7916 39.646 77.5236 39.578C77.2796 39.514 77.0796 39.45 76.9236 39.386C76.7716 39.318 76.6396 39.22 76.5276 39.092C76.4196 38.96 76.3656 38.788 76.3656 38.576C76.3656 38.408 76.4156 38.254 76.5156 38.114C76.6156 37.974 76.7576 37.864 76.9416 37.784C77.1256 37.7 77.3356 37.658 77.5716 37.658C77.9356 37.658 78.2296 37.75 78.4536 37.934C78.6776 38.118 78.7976 38.37 78.8136 38.69H78.2676C78.2556 38.518 78.1856 38.38 78.0576 38.276C77.9336 38.172 77.7656 38.12 77.5536 38.12C77.3576 38.12 77.2016 38.162 77.0856 38.246C76.9696 38.33 76.9116 38.44 76.9116 38.576C76.9116 38.684 76.9456 38.774 77.0136 38.846C77.0856 38.914 77.1736 38.97 77.2776 39.014C77.3856 39.054 77.5336 39.1 77.7216 39.152C77.9576 39.216 78.1496 39.28 78.2976 39.344C78.4456 39.404 78.5716 39.496 78.6756 39.62C78.7836 39.744 78.8396 39.906 78.8436 40.106C78.8436 40.286 78.7936 40.448 78.6936 40.592C78.5936 40.736 78.4516 40.85 78.2676 40.934C78.0876 41.014 77.8796 41.054 77.6436 41.054ZM82.6143 39.23C82.6143 39.334 82.6083 39.444 82.5963 39.56H79.9683C79.9883 39.884 80.0983 40.138 80.2983 40.322C80.5023 40.502 80.7483 40.592 81.0363 40.592C81.2723 40.592 81.4683 40.538 81.6243 40.43C81.7843 40.318 81.8963 40.17 81.9603 39.986H82.5483C82.4603 40.302 82.2843 40.56 82.0203 40.76C81.7563 40.956 81.4283 41.054 81.0363 41.054C80.7243 41.054 80.4443 40.984 80.1963 40.844C79.9523 40.704 79.7603 40.506 79.6203 40.25C79.4803 39.99 79.4103 39.69 79.4103 39.35C79.4103 39.01 79.4783 38.712 79.6143 38.456C79.7503 38.2 79.9403 38.004 80.1843 37.868C80.4323 37.728 80.7163 37.658 81.0363 37.658C81.3483 37.658 81.6243 37.726 81.8643 37.862C82.1043 37.998 82.2883 38.186 82.4163 38.426C82.5483 38.662 82.6143 38.93 82.6143 39.23ZM82.0503 39.116C82.0503 38.908 82.0043 38.73 81.9123 38.582C81.8203 38.43 81.6943 38.316 81.5343 38.24C81.3783 38.16 81.2043 38.12 81.0123 38.12C80.7363 38.12 80.5003 38.208 80.3043 38.384C80.1123 38.56 80.0023 38.804 79.9743 39.116H82.0503ZM87.289 37.652C87.545 37.652 87.773 37.706 87.973 37.814C88.173 37.918 88.331 38.076 88.447 38.288C88.563 38.5 88.621 38.758 88.621 39.062V41H88.081V39.14C88.081 38.812 87.999 38.562 87.835 38.39C87.675 38.214 87.457 38.126 87.181 38.126C86.897 38.126 86.671 38.218 86.503 38.402C86.335 38.582 86.251 38.844 86.251 39.188V41H85.711V39.14C85.711 38.812 85.629 38.562 85.465 38.39C85.305 38.214 85.087 38.126 84.811 38.126C84.527 38.126 84.301 38.218 84.133 38.402C83.965 38.582 83.881 38.844 83.881 39.188V41H83.335V37.712H83.881V38.186C83.989 38.014 84.133 37.882 84.313 37.79C84.497 37.698 84.699 37.652 84.919 37.652C85.195 37.652 85.439 37.714 85.651 37.838C85.863 37.962 86.021 38.144 86.125 38.384C86.217 38.152 86.369 37.972 86.581 37.844C86.793 37.716 87.029 37.652 87.289 37.652ZM90.0627 38.318C90.1707 38.13 90.3307 37.974 90.5427 37.85C90.7587 37.722 91.0087 37.658 91.2927 37.658C91.5847 37.658 91.8487 37.728 92.0847 37.868C92.3247 38.008 92.5127 38.206 92.6487 38.462C92.7847 38.714 92.8527 39.008 92.8527 39.344C92.8527 39.676 92.7847 39.972 92.6487 40.232C92.5127 40.492 92.3247 40.694 92.0847 40.838C91.8487 40.982 91.5847 41.054 91.2927 41.054C91.0127 41.054 90.7647 40.992 90.5487 40.868C90.3367 40.74 90.1747 40.582 90.0627 40.394V42.56H89.5167V37.712H90.0627V38.318ZM92.2947 39.344C92.2947 39.096 92.2447 38.88 92.1447 38.696C92.0447 38.512 91.9087 38.372 91.7367 38.276C91.5687 38.18 91.3827 38.132 91.1787 38.132C90.9787 38.132 90.7927 38.182 90.6207 38.282C90.4527 38.378 90.3167 38.52 90.2127 38.708C90.1127 38.892 90.0627 39.106 90.0627 39.35C90.0627 39.598 90.1127 39.816 90.2127 40.004C90.3167 40.188 90.4527 40.33 90.6207 40.43C90.7927 40.526 90.9787 40.574 91.1787 40.574C91.3827 40.574 91.5687 40.526 91.7367 40.43C91.9087 40.33 92.0447 40.188 92.1447 40.004C92.2447 39.816 92.2947 39.596 92.2947 39.344ZM96.5714 39.23C96.5714 39.334 96.5654 39.444 96.5534 39.56H93.9254C93.9454 39.884 94.0554 40.138 94.2554 40.322C94.4594 40.502 94.7054 40.592 94.9934 40.592C95.2294 40.592 95.4254 40.538 95.5814 40.43C95.7414 40.318 95.8534 40.17 95.9174 39.986H96.5054C96.4174 40.302 96.2414 40.56 95.9774 40.76C95.7134 40.956 95.3854 41.054 94.9934 41.054C94.6814 41.054 94.4014 40.984 94.1534 40.844C93.9094 40.704 93.7174 40.506 93.5774 40.25C93.4374 39.99 93.3674 39.69 93.3674 39.35C93.3674 39.01 93.4354 38.712 93.5714 38.456C93.7074 38.2 93.8974 38.004 94.1414 37.868C94.3894 37.728 94.6734 37.658 94.9934 37.658C95.3054 37.658 95.5814 37.726 95.8214 37.862C96.0614 37.998 96.2454 38.186 96.3734 38.426C96.5054 38.662 96.5714 38.93 96.5714 39.23ZM96.0074 39.116C96.0074 38.908 95.9614 38.73 95.8694 38.582C95.7774 38.43 95.6514 38.316 95.4914 38.24C95.3354 38.16 95.1614 38.12 94.9694 38.12C94.6934 38.12 94.4574 38.208 94.2614 38.384C94.0694 38.56 93.9594 38.804 93.9314 39.116H96.0074ZM98.8941 37.652C99.2941 37.652 99.6181 37.774 99.8661 38.018C100.114 38.258 100.238 38.606 100.238 39.062V41H99.6981V39.14C99.6981 38.812 99.6161 38.562 99.4521 38.39C99.2881 38.214 99.0641 38.126 98.7801 38.126C98.4921 38.126 98.2621 38.216 98.0901 38.396C97.9221 38.576 97.8381 38.838 97.8381 39.182V41H97.2921V37.712H97.8381V38.18C97.9461 38.012 98.0921 37.882 98.2761 37.79C98.4641 37.698 98.6701 37.652 98.8941 37.652ZM97.8801 37.358C97.9081 37.154 97.9741 36.998 98.0781 36.89C98.1861 36.782 98.3201 36.728 98.4801 36.728C98.5561 36.728 98.6201 36.742 98.6721 36.77C98.7281 36.794 98.7941 36.83 98.8701 36.878C98.9261 36.918 98.9761 36.95 99.0201 36.974C99.0641 36.994 99.1121 37.004 99.1641 37.004C99.2321 37.004 99.2901 36.982 99.3381 36.938C99.3861 36.894 99.4161 36.83 99.4281 36.746H99.7401C99.7161 36.946 99.6501 37.1 99.5421 37.208C99.4341 37.316 99.3001 37.37 99.1401 37.37C99.0641 37.37 98.9961 37.358 98.9361 37.334C98.8801 37.306 98.8161 37.266 98.7441 37.214C98.6801 37.174 98.6281 37.144 98.5881 37.124C98.5521 37.104 98.5081 37.094 98.4561 37.094C98.3881 37.094 98.3301 37.116 98.2821 37.16C98.2381 37.204 98.2101 37.27 98.1981 37.358H97.8801ZM102.564 41.054C102.256 41.054 101.976 40.984 101.724 40.844C101.476 40.704 101.28 40.506 101.136 40.25C100.996 39.99 100.926 39.69 100.926 39.35C100.926 39.014 100.998 38.718 101.142 38.462C101.29 38.202 101.49 38.004 101.742 37.868C101.994 37.728 102.276 37.658 102.588 37.658C102.9 37.658 103.182 37.728 103.434 37.868C103.686 38.004 103.884 38.2 104.028 38.456C104.176 38.712 104.25 39.01 104.25 39.35C104.25 39.69 104.174 39.99 104.022 40.25C103.874 40.506 103.672 40.704 103.416 40.844C103.16 40.984 102.876 41.054 102.564 41.054ZM102.564 40.574C102.76 40.574 102.944 40.528 103.116 40.436C103.288 40.344 103.426 40.206 103.53 40.022C103.638 39.838 103.692 39.614 103.692 39.35C103.692 39.086 103.64 38.862 103.536 38.678C103.432 38.494 103.296 38.358 103.128 38.27C102.96 38.178 102.778 38.132 102.582 38.132C102.382 38.132 102.198 38.178 102.03 38.27C101.866 38.358 101.734 38.494 101.634 38.678C101.534 38.862 101.484 39.086 101.484 39.35C101.484 39.618 101.532 39.844 101.628 40.028C101.728 40.212 101.86 40.35 102.024 40.442C102.188 40.53 102.368 40.574 102.564 40.574ZM106.363 39.344C106.363 39.008 106.431 38.714 106.567 38.462C106.703 38.206 106.889 38.008 107.125 37.868C107.365 37.728 107.633 37.658 107.929 37.658C108.185 37.658 108.423 37.718 108.643 37.838C108.863 37.954 109.031 38.108 109.147 38.3V36.56H109.699V41H109.147V40.382C109.039 40.578 108.879 40.74 108.667 40.868C108.455 40.992 108.207 41.054 107.923 41.054C107.631 41.054 107.365 40.982 107.125 40.838C106.889 40.694 106.703 40.492 106.567 40.232C106.431 39.972 106.363 39.676 106.363 39.344ZM109.147 39.35C109.147 39.102 109.097 38.886 108.997 38.702C108.897 38.518 108.761 38.378 108.589 38.282C108.421 38.182 108.235 38.132 108.031 38.132C107.827 38.132 107.641 38.18 107.473 38.276C107.305 38.372 107.171 38.512 107.071 38.696C106.971 38.88 106.921 39.096 106.921 39.344C106.921 39.596 106.971 39.816 107.071 40.004C107.171 40.188 107.305 40.33 107.473 40.43C107.641 40.526 107.827 40.574 108.031 40.574C108.235 40.574 108.421 40.526 108.589 40.43C108.761 40.33 108.897 40.188 108.997 40.004C109.097 39.816 109.147 39.598 109.147 39.35ZM113.622 39.23C113.622 39.334 113.616 39.444 113.604 39.56H110.976C110.996 39.884 111.106 40.138 111.306 40.322C111.51 40.502 111.756 40.592 112.044 40.592C112.28 40.592 112.476 40.538 112.632 40.43C112.792 40.318 112.904 40.17 112.968 39.986H113.556C113.468 40.302 113.292 40.56 113.028 40.76C112.764 40.956 112.436 41.054 112.044 41.054C111.732 41.054 111.452 40.984 111.204 40.844C110.96 40.704 110.768 40.506 110.628 40.25C110.488 39.99 110.418 39.69 110.418 39.35C110.418 39.01 110.486 38.712 110.622 38.456C110.758 38.2 110.948 38.004 111.192 37.868C111.44 37.728 111.724 37.658 112.044 37.658C112.356 37.658 112.632 37.726 112.872 37.862C113.112 37.998 113.296 38.186 113.424 38.426C113.556 38.662 113.622 38.93 113.622 39.23ZM113.058 39.116C113.058 38.908 113.012 38.73 112.92 38.582C112.828 38.43 112.702 38.316 112.542 38.24C112.386 38.16 112.212 38.12 112.02 38.12C111.744 38.12 111.508 38.208 111.312 38.384C111.12 38.56 111.01 38.804 110.982 39.116H113.058ZM114.889 36.56V41H114.343V36.56H114.889ZM120.419 39.23C120.419 39.334 120.413 39.444 120.401 39.56H117.773C117.793 39.884 117.903 40.138 118.103 40.322C118.307 40.502 118.553 40.592 118.841 40.592C119.077 40.592 119.273 40.538 119.429 40.43C119.589 40.318 119.701 40.17 119.765 39.986H120.353C120.265 40.302 120.089 40.56 119.825 40.76C119.561 40.956 119.233 41.054 118.841 41.054C118.529 41.054 118.249 40.984 118.001 40.844C117.757 40.704 117.565 40.506 117.425 40.25C117.285 39.99 117.215 39.69 117.215 39.35C117.215 39.01 117.283 38.712 117.419 38.456C117.555 38.2 117.745 38.004 117.989 37.868C118.237 37.728 118.521 37.658 118.841 37.658C119.153 37.658 119.429 37.726 119.669 37.862C119.909 37.998 120.093 38.186 120.221 38.426C120.353 38.662 120.419 38.93 120.419 39.23ZM119.855 39.116C119.855 38.908 119.809 38.73 119.717 38.582C119.625 38.43 119.499 38.316 119.339 38.24C119.183 38.16 119.009 38.12 118.817 38.12C118.541 38.12 118.305 38.208 118.109 38.384C117.917 38.56 117.807 38.804 117.779 39.116H119.855ZM122.304 41.054C122.052 41.054 121.826 41.012 121.626 40.928C121.426 40.84 121.268 40.72 121.152 40.568C121.036 40.412 120.972 40.234 120.96 40.034H121.524C121.54 40.198 121.616 40.332 121.752 40.436C121.892 40.54 122.074 40.592 122.298 40.592C122.506 40.592 122.67 40.546 122.79 40.454C122.91 40.362 122.97 40.246 122.97 40.106C122.97 39.962 122.906 39.856 122.778 39.788C122.65 39.716 122.452 39.646 122.184 39.578C121.94 39.514 121.74 39.45 121.584 39.386C121.432 39.318 121.3 39.22 121.188 39.092C121.08 38.96 121.026 38.788 121.026 38.576C121.026 38.408 121.076 38.254 121.176 38.114C121.276 37.974 121.418 37.864 121.602 37.784C121.786 37.7 121.996 37.658 122.232 37.658C122.596 37.658 122.89 37.75 123.114 37.934C123.338 38.118 123.458 38.37 123.474 38.69H122.928C122.916 38.518 122.846 38.38 122.718 38.276C122.594 38.172 122.426 38.12 122.214 38.12C122.018 38.12 121.862 38.162 121.746 38.246C121.63 38.33 121.572 38.44 121.572 38.576C121.572 38.684 121.606 38.774 121.674 38.846C121.746 38.914 121.834 38.97 121.938 39.014C122.046 39.054 122.194 39.1 122.382 39.152C122.618 39.216 122.81 39.28 122.958 39.344C123.106 39.404 123.232 39.496 123.336 39.62C123.444 39.744 123.5 39.906 123.504 40.106C123.504 40.286 123.454 40.448 123.354 40.592C123.254 40.736 123.112 40.85 122.928 40.934C122.748 41.014 122.54 41.054 122.304 41.054ZM124.941 38.162V40.1C124.941 40.26 124.975 40.374 125.043 40.442C125.111 40.506 125.229 40.538 125.396 40.538H125.799V41H125.307C125.003 41 124.775 40.93 124.623 40.79C124.471 40.65 124.395 40.42 124.395 40.1V38.162H123.969V37.712H124.395V36.884H124.941V37.712H125.799V38.162H124.941ZM126.256 39.344C126.256 39.008 126.324 38.714 126.46 38.462C126.596 38.206 126.782 38.008 127.018 37.868C127.258 37.728 127.524 37.658 127.816 37.658C128.104 37.658 128.354 37.72 128.566 37.844C128.778 37.968 128.936 38.124 129.04 38.312V37.712H129.592V41H129.04V40.388C128.932 40.58 128.77 40.74 128.554 40.868C128.342 40.992 128.094 41.054 127.81 41.054C127.518 41.054 127.254 40.982 127.018 40.838C126.782 40.694 126.596 40.492 126.46 40.232C126.324 39.972 126.256 39.676 126.256 39.344ZM129.04 39.35C129.04 39.102 128.99 38.886 128.89 38.702C128.79 38.518 128.654 38.378 128.482 38.282C128.314 38.182 128.128 38.132 127.924 38.132C127.72 38.132 127.534 38.18 127.366 38.276C127.198 38.372 127.064 38.512 126.964 38.696C126.864 38.88 126.814 39.096 126.814 39.344C126.814 39.596 126.864 39.816 126.964 40.004C127.064 40.188 127.198 40.33 127.366 40.43C127.534 40.526 127.72 40.574 127.924 40.574C128.128 40.574 128.314 40.526 128.482 40.43C128.654 40.33 128.79 40.188 128.89 40.004C128.99 39.816 129.04 39.598 129.04 39.35ZM130.311 39.344C130.311 39.008 130.379 38.714 130.515 38.462C130.651 38.206 130.837 38.008 131.073 37.868C131.313 37.728 131.581 37.658 131.877 37.658C132.133 37.658 132.371 37.718 132.591 37.838C132.811 37.954 132.979 38.108 133.095 38.3V36.56H133.647V41H133.095V40.382C132.987 40.578 132.827 40.74 132.615 40.868C132.403 40.992 132.155 41.054 131.871 41.054C131.579 41.054 131.313 40.982 131.073 40.838C130.837 40.694 130.651 40.492 130.515 40.232C130.379 39.972 130.311 39.676 130.311 39.344ZM133.095 39.35C133.095 39.102 133.045 38.886 132.945 38.702C132.845 38.518 132.709 38.378 132.537 38.282C132.369 38.182 132.183 38.132 131.979 38.132C131.775 38.132 131.589 38.18 131.421 38.276C131.253 38.372 131.119 38.512 131.019 38.696C130.919 38.88 130.869 39.096 130.869 39.344C130.869 39.596 130.919 39.816 131.019 40.004C131.119 40.188 131.253 40.33 131.421 40.43C131.589 40.526 131.775 40.574 131.979 40.574C132.183 40.574 132.369 40.526 132.537 40.43C132.709 40.33 132.845 40.188 132.945 40.004C133.045 39.816 133.095 39.598 133.095 39.35ZM136.003 41.054C135.695 41.054 135.415 40.984 135.163 40.844C134.915 40.704 134.719 40.506 134.575 40.25C134.435 39.99 134.365 39.69 134.365 39.35C134.365 39.014 134.437 38.718 134.581 38.462C134.729 38.202 134.929 38.004 135.181 37.868C135.433 37.728 135.715 37.658 136.027 37.658C136.339 37.658 136.621 37.728 136.873 37.868C137.125 38.004 137.323 38.2 137.467 38.456C137.615 38.712 137.689 39.01 137.689 39.35C137.689 39.69 137.613 39.99 137.461 40.25C137.313 40.506 137.111 40.704 136.855 40.844C136.599 40.984 136.315 41.054 136.003 41.054ZM136.003 40.574C136.199 40.574 136.383 40.528 136.555 40.436C136.727 40.344 136.865 40.206 136.969 40.022C137.077 39.838 137.131 39.614 137.131 39.35C137.131 39.086 137.079 38.862 136.975 38.678C136.871 38.494 136.735 38.358 136.567 38.27C136.399 38.178 136.217 38.132 136.021 38.132C135.821 38.132 135.637 38.178 135.469 38.27C135.305 38.358 135.173 38.494 135.073 38.678C134.973 38.862 134.923 39.086 134.923 39.35C134.923 39.618 134.971 39.844 135.067 40.028C135.167 40.212 135.299 40.35 135.463 40.442C135.627 40.53 135.807 40.574 136.003 40.574Z" fill="#1A1A1A"/>
</svg>
