<svg width="45" height="45" viewBox="0 0 45 45" fill="none" xmlns="http://www.w3.org/2000/svg">
<path d="M27.667 44.3105H16.6437C7.45149 44.3105 0.000183105 36.8592 0.000183105 27.667V16.6437C0.000183105 7.45182 7.45149 0.000196922 16.6437 0.000196922H27.667C36.8592 0.000196922 44.3108 7.45182 44.3108 16.6437V27.667C44.3108 36.8592 36.8592 44.3105 27.667 44.3105Z" fill="white"/>
<g opacity="0.800003">
<g opacity="0.800003">
<path opacity="0.800003" d="M0 8.72325V32.0665C3.95354 35.378 9.04751 37.3727 14.6081 37.3727C27.1806 37.3727 37.3727 27.1806 37.3727 14.6081C37.3727 9.04749 35.378 3.95353 32.0665 -1.81073e-05H8.72327C3.90553 -1.81073e-05 0 3.90551 0 8.72325Z" fill="#FBAE17"/>
</g>
</g>
<g opacity="0.800003">
<g opacity="0.800003">
<path opacity="0.800003" d="M44.3106 35.5875V12.2439C40.3571 8.93277 35.2631 6.93776 29.7025 6.93776C17.13 6.93776 6.93793 17.1298 6.93793 29.7023C6.93793 35.2629 8.93262 40.3569 12.2441 44.3105H35.5877C40.4051 44.3105 44.3106 40.4052 44.3106 35.5875Z" fill="#FBAE17"/>
</g>
</g>
<g opacity="0.699997">
<g opacity="0.699997">
<path opacity="0.699997" d="M8.72327 44.3105H32.0665C35.378 40.3569 37.3727 35.263 37.3727 29.7023C37.3727 17.1299 27.1806 6.93779 14.6081 6.93779C9.04751 6.93779 3.95354 8.9328 0 12.244V35.5875C0 40.4053 3.90553 44.3105 8.72327 44.3105Z" fill="#F7931E"/>
</g>
</g>
<g opacity="0.699997">
<g opacity="0.699997">
<path opacity="0.699997" d="M35.5876 7.34454e-05H12.2443C8.93282 3.95362 6.93781 9.04758 6.93781 14.6082C6.93781 27.1807 17.1299 37.3728 29.7027 37.3728C35.263 37.3728 40.3573 35.3781 44.3105 32.0666V8.72335C44.3105 3.90561 40.4053 7.34454e-05 35.5876 7.34454e-05Z" fill="#F7931E"/>
</g>
</g>
</svg>
